<svg xmlns="http://www.w3.org/2000/svg" xmlns:xlink="http://www.w3.org/1999/xlink" viewBox="0 0 375.75 225.5"><defs><style>.cls-1{fill:url(#New_Gradient_Swatch_1);}.cls-12,.cls-13,.cls-14,.cls-15,.cls-2,.cls-4{fill:#303030;}.cls-2{stroke:#69324c;stroke-width:17px;}.cls-12,.cls-13,.cls-14,.cls-15,.cls-16,.cls-2,.cls-5,.cls-8,.cls-9{stroke-miterlimit:10;}.cls-3{fill:#b5cac4;}.cls-5,.cls-6,.cls-9{fill:none;}.cls-5{stroke:#fff;stroke-width:2px;}.cls-11,.cls-5,.cls-6,.cls-9{stroke-linecap:round;}.cls-11,.cls-6,.cls-8,.cls-9{stroke:#303030;stroke-width:3px;}.cls-11,.cls-6{stroke-linejoin:round;}.cls-7{fill:url(#New_Gradient_Swatch_1-2);}.cls-8{fill:#e89a8b;}.cls-10{fill:url(#New_Gradient_Swatch_1-3);}.cls-11{fill:#ebd565;}.cls-12,.cls-13,.cls-14,.cls-15{stroke-width:8px;}.cls-12{stroke:url(#New_Gradient_Swatch_1-4);}.cls-13{stroke:url(#New_Gradient_Swatch_1-5);}.cls-14{stroke:url(#New_Gradient_Swatch_1-6);}.cls-15{stroke:url(#New_Gradient_Swatch_1-7);}.cls-16{fill:#ea3636;stroke:#e93636;}</style><linearGradient id="New_Gradient_Swatch_1" x1="72.66" y1="113.86" x2="215.17" y2="113.86" gradientUnits="userSpaceOnUse"><stop offset="0" stop-color="#303030"/><stop offset="1"/></linearGradient><linearGradient id="New_Gradient_Swatch_1-2" x1="211.66" y1="109.87" x2="375.75" y2="109.87" xlink:href="#New_Gradient_Swatch_1"/><linearGradient id="New_Gradient_Swatch_1-3" x1="141.4" y1="125.66" x2="259.59" y2="125.66" xlink:href="#New_Gradient_Swatch_1"/><linearGradient id="New_Gradient_Swatch_1-4" x1="155.19" y1="132.22" x2="173.34" y2="132.22" xlink:href="#New_Gradient_Swatch_1"/><linearGradient id="New_Gradient_Swatch_1-5" x1="158.39" y1="128.63" x2="189.42" y2="128.63" xlink:href="#New_Gradient_Swatch_1"/><linearGradient id="New_Gradient_Swatch_1-6" x1="177.86" y1="134.43" x2="204.86" y2="134.43" xlink:href="#New_Gradient_Swatch_1"/><linearGradient id="New_Gradient_Swatch_1-7" x1="194.43" y1="133.54" x2="217.15" y2="133.54" xlink:href="#New_Gradient_Swatch_1"/></defs><g id="Layer_2" data-name="Layer 2"><g id="Layer_4" data-name="Layer 4"><path class="cls-1" d="M131.33,224.26,179,188.16a8.31,8.31,0,0,0,3.31-4.58s37.15-69.62,32.49-81.9c-2.06-6.37-16.35-5.44-24.46-8A6,6,0,0,1,186,88.25l-.91-30.84a2.56,2.56,0,0,0-.53-1.51,8.16,8.16,0,0,0-3.45-2.67l-28-11.34a8.29,8.29,0,0,1-5.13-7.72V11.75c0-6.38-9.74-11.13-15.14-7.95L76.72,39.33A8.39,8.39,0,0,0,73,48.92l48.74,165.16C123.31,219.4,126.8,227.32,131.33,224.26Z"/><line class="cls-2" x1="87.6" y1="150.13" x2="94.3" y2="180.42"/><line class="cls-2" x1="100.22" y1="156.98" x2="78.54" y2="160.85"/><path class="cls-2" d="M102.94,173.31s-.45,6-8.35,7.33c-7.65,1.32-10.83-3.1-10.83-3.1"/><path class="cls-3" d="M134.58,218.94l31.47-78.86a6.84,6.84,0,0,0-4.61-9L87.17,108.12a7.81,7.81,0,0,0-4.59,0l-76,23.37a6.84,6.84,0,0,0-4.45,9.43l37.22,78.41a7.42,7.42,0,0,0,6.74,4.11h81.61A7.38,7.38,0,0,0,134.58,218.94Z"/><path class="cls-3" d="M8.21,151.39,76,130.31a29,29,0,0,1,17.65.15l66.72,22.06"/><polyline class="cls-3" points="30.84 122.9 30.84 81.27 83.56 59.09 133.73 81.27 135.33 123.13"/><polyline class="cls-3" points="32.06 103.71 85.24 81.82 134.13 101.2"/><path class="cls-3" d="M70.69,63.57,71,42.41a5.77,5.77,0,0,1,5.93-5.5H87.55a7.18,7.18,0,0,1,7.4,7V63.68"/><polygon class="cls-4" points="73.1 37.92 134.06 3.29 96.42 36.66 73.1 37.92"/><line class="cls-5" x1="136.71" y1="79.77" x2="169.44" y2="62.72"/><line class="cls-5" x1="104.69" y1="37" x2="140.87" y2="15.18"/><path class="cls-6" d="M125.61,120.86,94.22,111a33.83,33.83,0,0,0-19.85,0L7.76,131.5a8.41,8.41,0,0,0-5.47,11.6l36,75.84A9.15,9.15,0,0,0,46.58,224h79.33a9.08,9.08,0,0,0,8.5-5.54l30.44-76.27"/><path class="cls-6" d="M7.63,151.94,81.37,129a9.61,9.61,0,0,1,5.86.06l52,17.19"/><path class="cls-6" d="M134.75,121.12V86.64a8.52,8.52,0,0,0-5.42-7.82L86.67,61.17a9.63,9.63,0,0,0-7.36,0L35.63,79.57a8.54,8.54,0,0,0-5.37,7.79v36.09"/><path class="cls-6" d="M40.61,101,81.09,83.84a9.58,9.58,0,0,1,7.16,0l45.31,18"/><path class="cls-6" d="M70.11,64.13l.28-18.25a8.82,8.82,0,0,1,9.07-8.41h5.83A8.82,8.82,0,0,1,94.37,46V64.24"/><line class="cls-6" x1="49.93" y1="169.26" x2="56.63" y2="199.55"/><line class="cls-6" x1="62.54" y1="176.11" x2="40.86" y2="179.98"/><path class="cls-6" d="M65.26,192.43s-.44,6-8.35,7.34c-7.65,1.32-10.83-3.1-10.83-3.1"/><line class="cls-6" x1="118.82" y1="168.49" x2="110.31" y2="198.37"/><line class="cls-6" x1="126.8" y1="179.95" x2="105.6" y2="174.22"/><path class="cls-6" d="M121.42,195.68s-3.25,5.15-11,3c-7.46-2.06-8.18-7.36-8.18-7.36"/><line class="cls-5" x1="166.95" y1="125.18" x2="194.13" y2="110.89"/><path class="cls-7" d="M336.87,85.24c11.42,2.19,23,14.28,23,29.13a34.53,34.53,0,0,1-3.1,14.36c10.73,4.18,18.94,15.77,18.94,29.84,0,18.42-38.25,61.16-52.73,61.16l-83.27-29.57c-14.48,0-28.09-13.17-28.09-31.59,0-14.07,8.24-25.66,18.94-29.84a34.69,34.69,0,0,1-3.1-14.36c0-14.4,8.39-26,19.87-28.39-3.48-8.6-15.77-15.74-11.31-29.23,7-21.06,34.24-44.24,49.82-56.33,1.52-1.19,3.47.32,3.32,2.43C289.09,19.76,290,30.66,293,37c5.72,12,22.95,2.12,36.19,16.82A34.32,34.32,0,0,1,336.87,85.24Z"/><path class="cls-8" d="M305.25,116.06c11.42,2.2,23,14.29,23,29.13a34.53,34.53,0,0,1-3.1,14.36c10.73,4.18,18.94,15.77,18.94,29.85,0,18.41-13.61,31.58-28.08,31.58H208.13C193.65,221,180,207.81,180,189.4c0-14.08,8.24-25.67,18.94-29.85a34.69,34.69,0,0,1-3.1-14.36c0-14.39,8.39-26,19.87-28.39-3.48-8.6-3.05-21.06,1.41-34.55,7-21.06,21.52-38.92,37.1-51,1.52-1.19,3.47.32,3.32,2.44-.11,16.9.8,27.8,3.81,34.15,5.72,12,22.95,2.12,36.19,16.83A34.3,34.3,0,0,1,305.25,116.06Z"/><path class="cls-9" d="M250.06,139c10.95-2.93,30.64-9.69,43.67-17.72"/><path class="cls-9" d="M316.17,160.8S279.08,179.56,244,179.56"/><path class="cls-5" d="M267.18,65.63s8.17-6.79,14.24-13.14"/><path class="cls-5" d="M336.23,152.79a109.19,109.19,0,0,0,9.81-9.31c6.07-6.35,7.94-9.31,7.94-9.31"/><path class="cls-10" d="M208.17,94.41l22-3a1.31,1.31,0,0,1,1.37,1.69,48.45,48.45,0,0,0-3.1,16.09,1.31,1.31,0,0,0,1.12,1.7l28.81,2.88a1.31,1.31,0,0,1,.51,2.45l-8.83,5.86c-.56.31-22.89,12.17-22.67,12.78l10.52,29.75a1.31,1.31,0,0,1-.63,1.6l-12.25,6.38a1.31,1.31,0,0,1-1.61-.32l-14.73-17.53a1.32,1.32,0,0,0-2.09.11c-7.1,9-28.48,33.48-28.48,33.48-1,.51-.2-1.61,0-2.69l3.35-35.62a1.31,1.31,0,0,0-1.77-1.48L149,160.68a1.31,1.31,0,0,1-1.57-2l22.13-33.17a1.31,1.31,0,0,0-.71-2l-26.48-7.92a1.31,1.31,0,0,1,.26-2.56l26.65-2.35a1.31,1.31,0,0,0,1.19-1.2l11.15-40.3c0-.48-1.58-1.7-1.14-1.89L194.1,63a1.32,1.32,0,0,1,1.61.46L207,93.85A1.32,1.32,0,0,0,208.17,94.41Z"/><polygon class="cls-11" points="192.88 100.71 219.34 98.31 213.46 117.02 249.54 120.78 213.54 143.27 223.78 171.97 193.06 159.7 177.4 187.2 167.45 153.94 134.56 165.56 155.99 130.32 136.27 113.61 167.31 106.64 181.24 68.67 192.88 100.71"/><polygon class="cls-4" points="203.75 140.84 207.5 138.2 206.37 142.21 203.75 140.84"/><polygon class="cls-4" points="201.1 127.36 204.05 125.3 204.09 128.2 201.1 127.36"/><polygon class="cls-4" points="173.33 113.92 176.74 110.68 176.08 115.7 173.33 113.92"/><polygon class="cls-4" points="161.14 120.61 164.14 117.27 164.28 123.04 161.14 120.61"/><polygon class="cls-4" points="156.96 127.82 160.54 123.72 160.69 128.28 156.96 127.82"/><path class="cls-12" d="M164.59,127.1l-3.32,13.39a6.37,6.37,0,0,0-.18,2.17c.22,1.19,1.16,1.65,2.87,1.33s3.13-2.08,3.94-5.22c0-.05,0-.11,0-.16a.72.72,0,0,1,1.4.32,7.11,7.11,0,0,1-1.39,3.08,6.44,6.44,0,0,1-3.9,2.75c-2.73.51-4.4,1-4.8-1.2a9.18,9.18,0,0,1,.48-3.42l3.18-12.72-1.5.28c-.46.09-.71-.08-.69-.56a1.09,1.09,0,0,1,.89-1l1.65-.31,1.51-5.94a.8.8,0,1,1,1.56.35L165,125.53l2.64-.49c.46-.09.67.14.6.64a.94.94,0,0,1-.8.89Z"/><path class="cls-13" d="M179,129.3c.31-.86-.69-1.46-.73-2-.1-1.25.41-.64-1.21-.52s-3.33.28-4.45,3l-3.36,9.15A13.62,13.62,0,0,1,167,142.8a5.23,5.23,0,0,1-3.74,2,.74.74,0,1,1-.11-1.47q2.75-.21,4.52-4.92l9.4-25.41a.8.8,0,1,1,1.51.52l-4.28,11.64a4,4,0,0,1,2.44-1.13c2.46-.19,4.07.9,4.24,3a6,6,0,0,1-.48,2.72l-3.2,8.51a6,6,0,0,0-.42,2.14c.09,1.2.87,1.77,2.29,1.67,1.83-.14,3.34-1.73,4.48-4.76,0-.06.05-.11,0-.17.36-.87,1.82-.36,1.35.48-2.86,5.15,1.21,4.73.21,6s-4.7-.66-6.12-.55c-2.46.19-4.62,2.71-4.79.51a28,28,0,0,1,1.45-5.86Z"/><path class="cls-14" d="M191.46,144.61c-2.69.11-.55-1.53-2.12-1.63-2.47-.16-6.9,2.67-7.47.08-.18-.82,1-4.94,1.55-5.85l4.42-8c1.86-3.46,4-5.1,6.59-4.93a3.35,3.35,0,0,1,3.28,2.11l.59-1.07a.8.8,0,1,1,1.43.73L193,138.48a6.07,6.07,0,0,0-.72,2.05c-.08,1.21.61,1.89,2,2,1.83.12,3.55-1.24,5.11-4.08,0-.06.06-.11.06-.16a.72.72,0,0,1,1.27.66,11.53,11.53,0,0,1-2.65,3.51c-1.18,1.14-.15-.25-1.56-.34C194.46,142,194.14,144.51,191.46,144.61Zm-.17-6.35,4.61-8.49c.43-.86-1-.09-.93-.56.09-1.26.4-2.56-1.23-2.67-1.83-.12-3,.53-4.59,3.58l-4.31,7.82a5.69,5.69,0,0,0-.71,2c-.08,1.26.66,1.94,2.29,2.05C188.2,142.1,189.81,140.84,191.29,138.26Z"/><path class="cls-15" d="M209,128.52l-7.82,11.36a6,6,0,0,0-.94,2c-.21,1.19-.21,2.79,1.5,3.09s4.38-1.68,6.24-4.34c0,0,.07-.09.08-.14a.72.72,0,1,1,1.19.8,11.55,11.55,0,0,1-3,3.19,4.94,4.94,0,0,1-4,1.1c-2.74-.48-4.07-.72-3.69-2.9a10.86,10.86,0,0,1,1.33-3.64l7.45-10.79-1.5-.27c-.46-.08-.63-.32-.45-.77a1.08,1.08,0,0,1,1.17-.59l1.66.29,3.5-5a.8.8,0,1,1,1.34.87l-3.08,4.47,2.63.47c.47.08.58.36.34.8a1,1,0,0,1-1.06.56Z"/><path class="cls-16" d="M160.69,128.28l-3.33,13.39a6.4,6.4,0,0,0-.18,2.17c.22,1.19,1.17,1.65,2.87,1.34s3.14-2.09,3.94-5.23c0,0,0-.11,0-.16.26-.9,1.41-.89,1.21.06A12.41,12.41,0,0,1,163.4,144c-.87,1.39-1.69,2.39-3.08,2.65-2.74.51-4.28-.32-4.69-2.49a6.07,6.07,0,0,1,.17-2.81L159,128.6l-1.49.28c-.47.09-.71-.08-.7-.56a1.09,1.09,0,0,1,.89-1l1.65-.31,1.51-5.94a.8.8,0,1,1,1.56.35l-1.31,5.26,2.63-.49c.46-.08.67.14.6.64a.94.94,0,0,1-.8.89Z"/><path class="cls-16" d="M175.09,130.49a5.66,5.66,0,0,0,.42-2.09c-.1-1.26-.93-1.83-2.55-1.7s-3.15,1.55-4.27,4.22l-3.35,9.15a16.88,16.88,0,0,1-2.11,4.59,5.23,5.23,0,0,1-3.74,2,.74.74,0,1,1-.11-1.47c1.83-.14,3.21-2.46,4.39-5.6l9.4-25.41a.8.8,0,1,1,1.51.52l-4.28,11.64a4,4,0,0,1,2.45-1.13c2.46-.19,4.07.9,4.23,3a6,6,0,0,1-.48,2.72l-3.2,8.51a6.08,6.08,0,0,0-.42,2.14c.1,1.2.88,1.78,2.29,1.67,1.83-.14,3.34-1.73,4.48-4.76,0-.06.05-.11,0-.16a.72.72,0,0,1,1.36.47,12,12,0,0,1-2.13,3.85,5,5,0,0,1-3.64,2.06c-2.46.19-3.8-.81-4-3a6.13,6.13,0,0,1,.48-2.78Z"/><path class="cls-16" d="M186.82,142.5a5.36,5.36,0,0,1-4.41,2.14c-2.46-.17-3.9-1.47-3.76-3.62a6.07,6.07,0,0,1,.86-2.63l4.42-8c1.86-3.46,4-5.1,6.59-4.93a3.33,3.33,0,0,1,3.28,2.11l.6-1.07a.8.8,0,1,1,1.42.73l-6.71,12.45a6.07,6.07,0,0,0-.72,2.05c-.08,1.21.62,1.89,2,2,1.83.12,3.56-1.24,5.11-4.08,0-.06.06-.11.06-.16a.72.72,0,0,1,1.28.67,11.83,11.83,0,0,1-2.66,3.5,5,5,0,0,1-3.89,1.54C188.23,145,187.08,144.15,186.82,142.5Zm.57-3.06L192,131a6.18,6.18,0,0,0,.71-2c.08-1.26-.66-1.94-2.29-2q-2.74-.18-5.18,4.4l-4.31,7.82a5.69,5.69,0,0,0-.71,2c-.08,1.26.66,1.94,2.29,2C184.29,143.29,185.9,142,187.39,139.44Z"/><path class="cls-16" d="M204.52,129.15l-7.82,11.36a6,6,0,0,0-.94,2c-.21,1.19.51,2,2.21,2.26s3.67-.85,5.53-3.5c0-.06.07-.1.08-.15a.72.72,0,0,1,1.19.8,11.58,11.58,0,0,1-3,3.2,5,5,0,0,1-4,1.1c-2.74-.49-3.89-1.81-3.51-4a5.89,5.89,0,0,1,1.15-2.57l7.45-10.79-1.5-.27c-.46-.08-.64-.32-.45-.77a1.08,1.08,0,0,1,1.17-.59l1.66.29,3.5-5a.8.8,0,1,1,1.34.87l-3.09,4.47,2.64.47c.47.08.58.37.34.8a.94.94,0,0,1-1.06.56Z"/></g></g></svg>