<svg xmlns="http://www.w3.org/2000/svg" xmlns:xlink="http://www.w3.org/1999/xlink" viewBox="0 0 215.2 222.71">
    <defs>
        <style>.ship-cls-1{fill:url(#New_Gradient_Swatch_1);}.ship-cls-2,.ship-cls-4{fill:#303030;}.ship-cls-2{stroke:#69324c;stroke-width:17px;}.ship-cls-2,.ship-cls-5{stroke-miterlimit:10;}.ship-cls-3{fill:#b5cac4;}.ship-cls-5,.ship-cls-6{fill:none;stroke-linecap:round;}.ship-cls-5{stroke:#fff;stroke-width:2px;}.ship-cls-6{stroke:#303030;stroke-linejoin:round;stroke-width:3px;}</style>
        <linearGradient x1="72.66" y1="111.08" x2="215.2" y2="111.08" gradientUnits="userSpaceOnUse">
            <stop offset="0" stop-color="#303030" />
            <stop offset="1" />
        </linearGradient>
    </defs>
    <g data-name="Layer 2">
        <g data-name="Layer 4">
            <path class="ship-cls-1" d="M131.33,221.47,179,185.38c3.08-1.93,4.34-5.29,5.46-7.39,0,0,35-66.82,30.34-79.1-2.06-6.37-16.35-5.44-24.46-7.94A6,6,0,0,1,186,85.47l-.91-30.85a2.56,2.56,0,0,0-.53-1.5,8.08,8.08,0,0,0-3.45-2.67l-28-11.34a8.29,8.29,0,0,1-5.13-7.72V9c0-6.38-9.74-11.13-15.14-7.94L76.72,36.54A8.4,8.4,0,0,0,73,46.14l48.74,165.15C123.31,216.62,126.8,224.54,131.33,221.47Z" />
            <line class="ship-cls-2" x1="87.6" y1="147.35" x2="94.3" y2="177.63" />
            <line class="ship-cls-2" x1="100.22" y1="154.2" x2="78.54" y2="158.06" />
            <path class="ship-cls-2" d="M102.94,170.52s-.45,6-8.35,7.34c-7.65,1.32-10.83-3.1-10.83-3.1" />
            <path class="ship-cls-3" d="M134.58,216.15l31.47-78.85a6.85,6.85,0,0,0-4.61-9L87.17,105.34a7.89,7.89,0,0,0-4.59,0l-76,23.38a6.84,6.84,0,0,0-4.45,9.43l37.22,78.4a7.42,7.42,0,0,0,6.74,4.11h81.61A7.38,7.38,0,0,0,134.58,216.15Z" />
            <path class="ship-cls-3" d="M8.21,148.6,76,127.52a29,29,0,0,1,17.65.16l66.72,22" />
            <polyline class="ship-cls-3" points="30.84 120.11 30.84 78.49 83.56 56.31 133.73 78.49 135.33 120.34" />
            <polyline class="ship-cls-3" points="32.06 100.92 85.24 79.03 134.13 98.42" />
            <path class="ship-cls-3" d="M70.69,60.79,71,39.63a5.78,5.78,0,0,1,5.93-5.51H87.55a7.19,7.19,0,0,1,7.4,7V60.9" />
            <polygon class="ship-cls-4" points="73.1 35.13 134.06 0.51 96.42 33.87 73.1 35.13" />
            <line class="ship-cls-5" x1="136.71" y1="76.98" x2="169.44" y2="59.94" />
            <line class="ship-cls-5" x1="104.69" y1="34.21" x2="140.87" y2="12.39" />
            <path class="ship-cls-6" d="M125.61,118.08l-31.39-9.83a33.83,33.83,0,0,0-19.85,0L7.76,128.71a8.41,8.41,0,0,0-5.47,11.6l36,75.84a9.13,9.13,0,0,0,8.29,5.06h79.33a9.08,9.08,0,0,0,8.5-5.54l30.44-76.26s3.85-8.45-6.69-12.25c-14-5-23.25-8.91-23.41-8.82V83.85A8.53,8.53,0,0,0,129.33,76L86.67,58.39a9.58,9.58,0,0,0-7.36,0L35.63,76.78a8.55,8.55,0,0,0-5.37,7.8v36.09" />
            <path class="ship-cls-6" d="M7.63,149.16l73.74-22.92a9.69,9.69,0,0,1,5.86.05l52,17.2" />
            <path class="ship-cls-6" d="M40.61,98.16l40.48-17.1a9.58,9.58,0,0,1,7.16,0l45.31,18" />
            <path class="ship-cls-6" d="M70.11,61.34l.28-18.24a8.83,8.83,0,0,1,9.07-8.42h5.83a8.82,8.82,0,0,1,9.08,8.54V61.45" />
            <line class="ship-cls-6" x1="49.93" y1="166.48" x2="56.63" y2="196.76" />
            <line class="ship-cls-6" x1="62.54" y1="173.33" x2="40.86" y2="177.19" />
            <path class="ship-cls-6" d="M65.26,189.65s-.44,6-8.35,7.34c-7.65,1.32-10.83-3.11-10.83-3.11" />
            <line class="ship-cls-6" x1="118.82" y1="165.71" x2="110.31" y2="195.59" />
            <line class="ship-cls-6" x1="126.8" y1="177.17" x2="105.6" y2="171.44" />
            <path class="ship-cls-6" d="M121.42,192.89s-3.25,5.15-11,3c-7.46-2.06-8.18-7.35-8.18-7.35" />
            <line class="ship-cls-5" x1="171.33" y1="126.03" x2="194.44" y2="112.45" />
        </g>
    </g>
</svg>