<svg viewBox="0 0 197.21 216.48" xmlns="http://www.w3.org/2000/svg" xmlns:xlink="http://www.w3.org/1999/xlink"><linearGradient id="a" gradientUnits="userSpaceOnUse" x1="33.12" x2="197.21" y1="106.87" y2="106.87"><stop offset="0" stop-color="#303030"/><stop offset="1"/></linearGradient><path d="m158.33 79.24c11.42 2.19 23 14.28 23 29.13a34.53 34.53 0 0 1 -3.1 14.36c10.73 4.18 18.94 15.77 18.94 29.84 0 18.42-38.25 61.16-52.73 61.16l-83.23-29.57c-14.48 0-28.09-13.17-28.09-31.59 0-14.07 8.24-25.66 18.94-29.84a34.69 34.69 0 0 1 -3.06-14.36c0-14.37 8.35-25.96 19.83-28.37-3.49-8.6-9-32.92-4.59-46.42 20.94-18.38 27.52-21.07 43.1-33.16 1.52-1.19 3.47.32 3.32 2.43-.11 16.91.8 21.81 3.81 28.16 5.72 12 22.95 2.12 36.19 16.82a34.32 34.32 0 0 1 7.67 31.41z" fill="url(#a)"/><g stroke-miterlimit="10"><path d="m126.71 110.06c11.42 2.2 23 14.29 23 29.13a34.53 34.53 0 0 1 -3.1 14.36c10.73 4.18 18.94 15.77 18.94 29.85.04 18.41-13.55 31.6-28.05 31.6h-107.91c-14.48 0-28.09-13.19-28.09-31.6 0-14.08 8.23-25.67 18.94-29.85a34.53 34.53 0 0 1 -3.1-14.36c0-14.39 8.39-26 19.87-28.39-3.49-8.6-3.05-21.06 1.41-34.55 7-21.06 21.52-38.92 37.1-51 1.52-1.19 3.47.32 3.32 2.44-.11 16.9.8 27.8 3.81 34.15 5.72 12 23 2.12 36.19 16.83a34.3 34.3 0 0 1 7.67 31.39z" fill="#e89a8b" stroke="#303030" stroke-width="3"/><path d="m71.52 133c11-2.93 30.64-9.69 43.67-17.72" fill="none" stroke="#303030" stroke-linecap="round" stroke-width="3"/><path d="m137.62 154.8s-37.08 18.76-72.18 18.76" fill="none" stroke="#303030" stroke-linecap="round" stroke-width="3"/><path d="m88.64 59.63s8.17-6.79 14.24-13.14" fill="none" stroke="#fff" stroke-linecap="round" stroke-width="2"/><path d="m157.69 146.79a109.19 109.19 0 0 0 9.81-9.31c6.07-6.35 7.94-9.31 7.94-9.31" fill="none" stroke="#fff" stroke-linecap="round" stroke-width="2"/></g></svg>