<svg xmlns="http://www.w3.org/2000/svg" xmlns:xlink="http://www.w3.org/1999/xlink" viewBox="0 0 126.53 125.83"><defs><style>.cls-1{fill:url(#New_Gradient_Swatch_1);}.cls-2{fill:#ebd565;stroke:#303030;stroke-linecap:round;stroke-linejoin:round;stroke-width:3px;}.cls-3,.cls-4,.cls-5,.cls-6,.cls-7{fill:#303030;}.cls-4,.cls-5,.cls-6,.cls-7,.cls-8{stroke-miterlimit:10;}.cls-4,.cls-5,.cls-6,.cls-7{stroke-width:8px;}.cls-4{stroke:url(#New_Gradient_Swatch_1-2);}.cls-5{stroke:url(#New_Gradient_Swatch_1-3);}.cls-6{stroke:url(#New_Gradient_Swatch_1-4);}.cls-7{stroke:url(#New_Gradient_Swatch_1-5);}.cls-8{fill:#ea3636;stroke:#e93636;}</style><linearGradient id="New_Gradient_Swatch_1" x1="8.34" y1="62.79" x2="126.53" y2="62.79" gradientUnits="userSpaceOnUse"><stop offset="0" stop-color="#303030"/><stop offset="1"/></linearGradient><linearGradient id="New_Gradient_Swatch_1-2" x1="16.33" y1="69.49" x2="37.63" y2="69.49" xlink:href="#New_Gradient_Swatch_1"/><linearGradient id="New_Gradient_Swatch_1-3" x1="20.53" y1="64.79" x2="58.71" y2="64.79" xlink:href="#New_Gradient_Swatch_1"/><linearGradient id="New_Gradient_Swatch_1-4" x1="46.04" y1="72.4" x2="78.95" y2="72.4" xlink:href="#New_Gradient_Swatch_1"/><linearGradient id="New_Gradient_Swatch_1-5" x1="67.77" y1="71.22" x2="95.06" y2="71.22" xlink:href="#New_Gradient_Swatch_1"/></defs><g id="Layer_2" data-name="Layer 2"><g id="Layer_4" data-name="Layer 4"><path class="cls-1" d="M75.12,31.54l22-2.95a1.3,1.3,0,0,1,1.37,1.69,48.45,48.45,0,0,0-3.1,16.09,1.31,1.31,0,0,0,1.12,1.7L125.34,51a1.31,1.31,0,0,1,.51,2.45L117,59.26c-.57.31-22.9,12.17-22.68,12.78l10.52,29.75a1.31,1.31,0,0,1-.63,1.6L92,109.77a1.31,1.31,0,0,1-1.61-.32L75.65,91.92a1.32,1.32,0,0,0-2.09.11c-7.1,9-28.48,33.48-28.48,33.48-1,.51-.2-1.61,0-2.69L48.45,87.2a1.31,1.31,0,0,0-1.77-1.48L15.91,97.81a1.31,1.31,0,0,1-1.57-2L36.47,62.69a1.31,1.31,0,0,0-.71-2L9.28,52.79a1.31,1.31,0,0,1,.26-2.56l26.65-2.35a1.31,1.31,0,0,0,1.19-1.2L48.53,6.38c0-.48-1.58-1.7-1.14-1.89L61,.11a1.32,1.32,0,0,1,1.61.46L73.92,31A1.31,1.31,0,0,0,75.12,31.54Z"/><polygon class="cls-2" points="59.82 37.84 86.28 35.44 80.4 54.15 116.48 57.91 80.48 80.4 90.72 109.1 60.01 96.83 44.34 124.33 34.4 91.07 1.5 102.69 22.93 67.45 3.21 50.74 34.25 43.77 48.18 5.8 59.82 37.84"/><polygon class="cls-3" points="78.74 80.8 83.64 77.33 82.17 82.59 78.74 80.8"/><polygon class="cls-3" points="75.26 63.13 79.13 60.42 79.18 64.23 75.26 63.13"/><polygon class="cls-3" points="38.33 45.23 41 41.27 42.48 47.85 38.33 45.23"/><polygon class="cls-3" points="22.22 54.4 24.5 50.49 26.34 57.59 22.22 54.4"/><polygon class="cls-3" points="17.3 63.03 19.61 59.52 22.29 64.34 17.3 63.03"/><path class="cls-4" d="M27.42,62.79,23.06,80.34a8.05,8.05,0,0,0-.24,2.84c.3,1.56,1.53,2.17,3.76,1.75s4.11-2.73,5.16-6.85c0-.06.05-.14,0-.21a.94.94,0,0,1,1.83.43c-.3,1.73-.69,2.2-1.82,4a8.38,8.38,0,0,1-5.1,3.62c-3.58.67-5.77,1.26-6.3-1.58A12.3,12.3,0,0,1,21,79.88l4.16-16.67-2,.37c-.61.11-.93-.11-.91-.74a1.41,1.41,0,0,1,1.17-1.27l2.16-.41,2-7.79a1,1,0,1,1,2,.46l-1.72,6.9,3.45-.64c.61-.11.88.19.79.83a1.25,1.25,0,0,1-1,1.18Z"/><path class="cls-5" d="M46.29,65.68c.4-1.14-.91-1.93-1-2.62-.12-1.64.54-.84-1.58-.68-2.27.17-4.37.37-5.83,3.86l-4.4,12a18.22,18.22,0,0,1-2.92,5.12A6.88,6.88,0,0,1,25.68,86a1,1,0,1,1-.15-1.92c2.41-.18,4.38-2.34,5.93-6.45L43.77,44.33a1.05,1.05,0,1,1,2,.68L40.15,60.28a5.19,5.19,0,0,1,3.2-1.49c3.23-.24,5.34,1.18,5.55,4a7.76,7.76,0,0,1-.63,3.56L44.08,77.51a7.73,7.73,0,0,0-.54,2.8c.11,1.58,1.14,2.33,3,2.19,2.4-.19,4.38-2.27,5.88-6.25,0-.06.05-.14.05-.21.46-1.14,2.39-.48,1.77.63-3.75,6.75,1.59,6.2.27,7.88s-6.16-.85-8-.71c-3.22.24-6.06,3.54-6.28.66-.09-1.16,1.37-6.39,1.9-7.67Z"/><path class="cls-6" d="M62.62,85.74c-3.52.14-.72-2-2.78-2.14-3.22-.21-9,3.51-9.78.1-.23-1.07,1.33-6.46,2-7.66l5.79-10.51c2.44-4.53,5.27-6.69,8.64-6.47,2.26.15,3.65,1.07,4.3,2.77l.78-1.4a1.05,1.05,0,1,1,1.87,1L64.67,77.7a8,8,0,0,0-.94,2.69c-.1,1.58.8,2.47,2.66,2.59,2.4.16,4.66-1.62,6.7-5.35,0-.07.07-.13.08-.2a.94.94,0,0,1,1.66.87,15.16,15.16,0,0,1-3.47,4.6c-1.55,1.48-.2-.33-2-.45C66.56,82.27,66.14,85.61,62.62,85.74Zm-.21-8.33,6-11.12c.56-1.14-1.26-.12-1.22-.74.11-1.64.52-3.36-1.61-3.5-2.4-.16-3.9.69-6,4.69L54,77A7.44,7.44,0,0,0,53,79.62c-.11,1.65.87,2.54,3,2.68C58.35,82.45,60.46,80.8,62.41,77.41Z"/><path class="cls-7" d="M85.6,64.65,75.35,79.54a7.94,7.94,0,0,0-1.23,2.58c-.27,1.56-.27,3.66,2,4.06s5.75-2.21,8.19-5.69c0-.07.09-.13.1-.19a.94.94,0,0,1,1.56,1,15,15,0,0,1-4,4.19A6.49,6.49,0,0,1,76.69,87c-3.59-.63-5.34-1-4.84-3.8a14.59,14.59,0,0,1,1.75-4.78l9.76-14.14-.78-.3a24.69,24.69,0,0,1-3.32-1.29c-.46-.46,2.33-.61,3.08-.55l1.25-.19,5.51-6a1.05,1.05,0,1,1,1.76,1.15l-4,5.86,3.45.61c.61.1.76.48.44,1a1.24,1.24,0,0,1-1.38.74Z"/><path class="cls-8" d="M22.29,64.34,17.94,81.88a8.09,8.09,0,0,0-.24,2.85c.29,1.55,1.53,2.16,3.76,1.75s4.11-2.73,5.16-6.85c0-.07,0-.15,0-.21.34-1.19,1.85-1.17,1.59.07a16.14,16.14,0,0,1-2.39,5.41c-1.13,1.82-2.21,3.13-4,3.47-3.58.67-5.61-.42-6.14-3.26a7.81,7.81,0,0,1,.23-3.68l4.16-16.67-2,.36c-.61.12-.93-.1-.91-.74a1.41,1.41,0,0,1,1.16-1.26l2.17-.41,2-7.79a1.05,1.05,0,1,1,2.05.46l-1.72,6.9,3.45-.64c.61-.12.87.18.78.83a1.22,1.22,0,0,1-1,1.17Z"/><path class="cls-8" d="M41.17,67.22a7.43,7.43,0,0,0,.55-2.73c-.13-1.65-1.22-2.39-3.34-2.23-2.27.17-4.13,2-5.59,5.53l-4.4,12a21.89,21.89,0,0,1-2.76,6,6.85,6.85,0,0,1-4.9,2.65,1,1,0,1,1-.15-1.93c2.41-.18,4.21-3.22,5.76-7.34l12.31-33.3a1.05,1.05,0,1,1,2,.68L35,61.82a5.21,5.21,0,0,1,3.2-1.48c3.23-.25,5.33,1.18,5.55,4a7.91,7.91,0,0,1-.63,3.57L39,79.05a8.1,8.1,0,0,0-.55,2.81c.12,1.57,1.15,2.32,3,2.18,2.4-.18,4.38-2.26,5.87-6.24,0-.07.06-.14.06-.21a.94.94,0,0,1,1.77.63,15.33,15.33,0,0,1-2.79,5A6.53,6.53,0,0,1,41.55,86c-3.22.25-5-1.07-5.2-3.95A7.89,7.89,0,0,1,37,78.38Z"/><path class="cls-8" d="M56.54,83c-1.79,2-3.71,2.93-5.77,2.79-3.23-.21-5.12-1.92-4.93-4.74A7.72,7.72,0,0,1,47,77.59l5.8-10.52c2.44-4.53,5.27-6.68,8.63-6.46,2.27.15,3.66,1.07,4.3,2.76L66.47,62a1.05,1.05,0,1,1,1.87,1l-8.8,16.31a8,8,0,0,0-.93,2.7c-.11,1.58.8,2.47,2.66,2.59,2.4.16,4.65-1.62,6.69-5.35,0-.07.08-.13.09-.2a.94.94,0,1,1,1.66.87,15.29,15.29,0,0,1-3.47,4.59,6.49,6.49,0,0,1-5.1,2C58.39,86.27,56.88,85.14,56.54,83Zm.75-4,6-11.12a8,8,0,0,0,.93-2.63c.11-1.65-.87-2.54-3-2.68q-3.62-.24-6.8,5.76L48.83,78.54a7.25,7.25,0,0,0-.93,2.63c-.11,1.65.87,2.54,3,2.68C53.23,84,55.34,82.35,57.29,79Z"/><path class="cls-8" d="M79.74,65.47,69.49,80.37a7.91,7.91,0,0,0-1.23,2.57c-.27,1.56.67,2.57,2.91,3s4.8-1.1,7.24-4.59c0-.06.09-.12.1-.19a.94.94,0,0,1,1.56,1,15.17,15.17,0,0,1-3.95,4.19,6.49,6.49,0,0,1-5.29,1.44c-3.59-.63-5.1-2.37-4.6-5.21a7.83,7.83,0,0,1,1.5-3.37L77.5,65.08l-2-.35c-.61-.11-.84-.43-.59-1a1.42,1.42,0,0,1,1.53-.78l2.17.39,4.59-6.6A1.05,1.05,0,1,1,85,57.88l-4,5.85,3.45.61c.61.11.76.49.44,1.06a1.23,1.23,0,0,1-1.38.73Z"/></g></g></svg>